<svg width="193" height="54" viewBox="0 0 193 54" fill="none" xmlns="http://www.w3.org/2000/svg">
<path d="M42.1945 11.7775C40.013 9.65119 37.6106 8.04958 35.001 6.9864C32.3776 5.92325 29.6577 5.38479 26.8272 5.38479C23.8587 5.38479 21.0696 5.95088 18.4739 7.06927C15.8644 8.18762 13.6 9.72023 11.6532 11.6808C9.72019 13.6415 8.18758 15.9334 7.06923 18.5706C5.95084 21.1939 5.38475 24.0106 5.38475 27.0067C5.38475 29.92 5.93705 32.6814 7.02781 35.2909C8.11858 37.8867 9.62356 40.1786 11.5289 42.1531C13.4481 44.1137 15.7263 45.6739 18.3496 46.8199C20.973 47.9659 23.831 48.5458 26.91 48.5458C29.7405 48.5458 32.4191 48.0487 34.9734 47.0684C37.5277 46.0881 39.8887 44.5003 42.0702 42.3188C42.3463 42.0426 42.6501 41.8493 43.0091 41.725C43.3543 41.6008 43.6994 41.5455 44.0584 41.5455C44.8317 41.5455 45.4668 41.8217 45.95 42.3601C46.4471 42.8986 46.6818 43.5199 46.6818 44.2103C46.6818 44.942 46.4332 45.5634 45.9224 46.0743C43.1886 48.7666 40.1925 50.7549 36.934 52.0251C33.6755 53.2953 30.279 53.9305 26.7444 53.9305C24.2591 53.9305 21.8842 53.6129 19.6061 52.964C17.3279 52.3151 15.1878 51.4038 13.2134 50.2302C11.2252 49.0566 9.41643 47.6621 7.7872 46.0329C6.15797 44.4036 4.76345 42.5811 3.61747 40.5929C2.4715 38.5908 1.57402 36.4507 0.938889 34.1588C0.317589 31.8668 0 29.492 0 27.0067C0 23.4445 0.662718 20.0479 1.98824 16.8033C3.31372 13.5448 5.16387 10.6867 7.55249 8.18762C9.94111 5.68854 12.7716 3.70035 16.0577 2.22295C19.3575 0.745595 22.9474 0 26.8686 0C30.3756 0 33.7583 0.662718 37.0306 2.00203C40.3167 3.3413 43.2853 5.34333 45.9639 8.00812C46.5299 8.57421 46.8061 9.22314 46.8061 9.95494C46.8061 10.3001 46.737 10.6315 46.5852 10.949C46.4333 11.2528 46.2261 11.5289 45.9776 11.7775C45.7153 12.0122 45.4253 12.2193 45.0802 12.3574C44.7488 12.5092 44.4036 12.5921 44.0584 12.5921C43.6995 12.5921 43.3681 12.523 43.0505 12.3988C42.7191 12.2745 42.443 12.0674 42.1945 11.7774L42.1945 11.7775ZM54.0134 5.63329C54.0134 4.72203 54.3171 3.94885 54.9384 3.32751C55.5598 2.70621 56.333 2.40245 57.2442 2.40245C58.1693 2.40245 58.9425 2.70621 59.5776 3.32751C60.2128 3.94885 60.5303 4.72203 60.5303 5.63329C60.5303 6.51697 60.2128 7.27636 59.5776 7.91145C58.9425 8.54659 58.1693 8.86413 57.2442 8.86413C56.333 8.86413 55.5597 8.54659 54.9384 7.91145C54.3171 7.27632 54.0134 6.51693 54.0134 5.63329ZM54.5104 17.107C54.5104 16.3338 54.7728 15.6711 55.3112 15.1464C55.8497 14.6217 56.4987 14.3594 57.2442 14.3594C58.0174 14.3594 58.6525 14.6217 59.1496 15.1464C59.6466 15.6711 59.8952 16.3338 59.8952 17.107V50.893C59.8952 51.6386 59.6328 52.2875 59.1082 52.8122C58.5835 53.3368 57.9622 53.5992 57.2442 53.5992C56.4986 53.5992 55.8497 53.3368 55.3112 52.8122C54.7728 52.2875 54.5104 51.6386 54.5104 50.893V17.107ZM67.641 35.0424C67.641 32.212 68.1794 29.5472 69.2564 27.0481C70.3333 24.5628 71.8107 22.3675 73.6747 20.5036C75.5386 18.6258 77.7064 17.1484 80.1917 16.0577C82.6631 14.9669 85.3141 14.4146 88.1169 14.4146H88.4345C89.3043 14.4146 89.9809 14.6769 90.4779 15.1878C90.975 15.6987 91.2235 16.3476 91.2235 17.1208C91.2235 17.9078 90.9612 18.5567 90.4227 19.0538C89.8843 19.5508 89.2215 19.7994 88.4345 19.7994H88.1169C86.0597 19.7994 84.1267 20.1998 82.3041 20.9868C80.4816 21.7876 78.8938 22.8784 77.5131 24.2453C76.1462 25.626 75.0416 27.2414 74.2408 29.0916C73.4262 30.9555 73.0258 32.9437 73.0258 35.0424V50.7273C73.0258 51.5004 72.7772 52.1494 72.2802 52.6602C71.7831 53.1711 71.1618 53.4334 70.43 53.4334C69.6844 53.4334 69.0217 53.1711 68.4694 52.6602C67.9171 52.1494 67.641 51.5004 67.641 50.7273V35.0424V35.0424ZM147.418 48.0487C148.192 48.0487 148.841 48.3111 149.338 48.8357C149.835 49.3466 150.083 49.9955 150.083 50.7549C150.083 51.5557 149.835 52.2047 149.351 52.6879C148.868 53.185 148.233 53.4335 147.46 53.4335C145.541 53.4335 143.773 53.116 142.158 52.467C140.529 51.8181 139.134 50.893 137.947 49.6918C136.759 48.4906 135.834 47.0546 135.172 45.3702C134.509 43.6857 134.177 41.8079 134.177 39.7369V3.16188C134.177 2.37487 134.426 1.72594 134.923 1.20127C135.42 0.676594 136.055 0.414257 136.815 0.414257C137.533 0.414257 138.181 0.676594 138.734 1.20127C139.286 1.72594 139.562 2.37487 139.562 3.16188V39.5712C139.562 42.2636 140.253 44.3485 141.647 45.8259C143.042 47.3032 144.961 48.0488 147.418 48.0488L147.418 48.0487ZM158.713 36.6993C158.92 38.3838 159.431 39.9578 160.218 41.4213C161.018 42.8849 162.04 44.1551 163.283 45.2321C164.512 46.3229 165.92 47.1651 167.508 47.7864C169.082 48.4077 170.752 48.7115 172.506 48.7115C173.307 48.7115 174.025 48.6838 174.66 48.6148C175.295 48.5458 175.889 48.4353 176.441 48.2835C176.993 48.1316 177.532 47.9383 178.056 47.7036C178.581 47.455 179.133 47.1789 179.699 46.8475C180.003 46.668 180.293 46.53 180.569 46.4609C180.859 46.3919 181.122 46.3643 181.356 46.3643C182.116 46.3643 182.737 46.6681 183.234 47.248C183.731 47.8417 183.993 48.4906 183.993 49.1948C183.993 49.609 183.883 50.0094 183.69 50.4098C183.483 50.7964 183.151 51.1278 182.696 51.4039C181.991 51.8043 181.287 52.1771 180.569 52.5085C179.851 52.826 179.092 53.0883 178.291 53.2955C177.477 53.5025 176.593 53.6544 175.654 53.7649C174.715 53.8754 173.666 53.9306 172.506 53.9306C169.772 53.9306 167.218 53.4059 164.815 52.3704C162.413 51.3349 160.314 49.9265 158.519 48.1454C156.724 46.3643 155.316 44.2795 154.281 41.877C153.245 39.4745 152.72 36.9203 152.72 34.1864C152.72 31.4664 153.245 28.9121 154.281 26.5097C155.316 24.1072 156.724 22.0086 158.519 20.2136C160.314 18.4187 162.413 17.0104 164.815 15.9749C167.218 14.9393 169.772 14.4147 172.506 14.4147C175.198 14.4147 177.739 14.9393 180.141 15.9749C182.544 17.0104 184.642 18.4187 186.437 20.2136C188.232 21.9947 189.654 24.0796 190.704 26.4683C191.753 28.8569 192.292 31.4112 192.319 34.1036C192.319 34.8354 192.084 35.4567 191.587 35.9537C191.104 36.4508 190.469 36.6993 189.696 36.6993H158.713L158.713 36.6993ZM186.824 32.1429C186.603 30.3618 186.092 28.7188 185.277 27.2C184.477 25.6812 183.441 24.3557 182.171 23.2511C180.901 22.1328 179.451 21.2491 177.822 20.6002C176.192 19.9513 174.439 19.6337 172.575 19.6337C170.725 19.6337 168.971 19.965 167.342 20.6278C165.713 21.2767 164.277 22.1742 163.034 23.3063C161.792 24.4385 160.784 25.764 159.997 27.2828C159.224 28.8016 158.726 30.417 158.547 32.1429H186.824L186.824 32.1429Z" fill="#3C407F"/>
<path fill-rule="evenodd" clip-rule="evenodd" d="M97.6011 19.7737C97.1426 20.0409 95.7712 21.654 95.3215 22.2557C89.6422 29.8547 90.1721 39.8473 96.3237 46.9269C103.123 54.7516 115.458 56.0617 123.825 49.6145C125.717 48.1567 126.629 45.3223 125.262 42.8447C124.187 40.8965 121.411 39.3964 118.68 40.5862C116.853 41.3826 116.231 42.9322 111.992 43.2725C109.244 43.4931 106.451 42.2618 104.766 40.6476C102.947 38.9046 101.888 36.8618 101.826 34.25C101.696 28.7969 106.107 24.8591 111.469 24.7329C113.569 24.6835 115.628 25.3268 117.2 26.5318C117.707 26.9199 118.063 27.3386 118.469 27.6974C118.997 28.1649 119.732 27.8724 119.89 27.3022C120.304 25.8078 114.278 21.4038 107.904 23.5476C105.564 24.3348 103.762 25.5595 102.303 27.4369C100.805 29.366 99.8518 31.9759 100.097 34.811C100.217 36.1958 100.717 38.0706 101.421 39.21C101.831 39.8743 102.445 40.7848 102.951 41.3278C106.648 45.2942 112.437 46.1373 117.135 43.6069C118.146 43.0621 118.964 42.1615 120.169 41.982C122.951 41.5677 125.089 44.3912 123.735 47.0216C122.556 49.3132 117.035 51.3979 114.357 51.7706C108.389 52.6013 103.586 50.894 99.5796 47.6251C96.3895 45.0222 93.3689 40.1655 93.1834 35.2174C92.9878 29.9985 94.3252 26.1006 97.5528 22.3075C97.8188 21.9949 98.5837 21.2828 98.7022 21.0497C98.8352 20.98 98.7653 21.0249 98.8941 20.9346L100.003 20.0112C105.792 15.6124 113.32 14.7556 119.951 18.1491C120.871 18.6194 122.066 19.3505 122.884 20.0337C124.067 21.0208 122.739 22.9111 121.413 22.1366C120.378 21.5324 120.214 21.133 118.499 20.3059C110.094 16.2533 100.151 19.9704 96.699 28.6256C95.2564 32.0716 95.425 36.6407 97.0686 40.1835L97.0617 40.1931C97.1201 40.3166 97.18 40.4393 97.2415 40.5613C97.301 40.6914 97.361 40.8174 97.4089 40.8966C97.4272 40.9269 97.444 40.9541 97.4595 40.9787C97.8062 41.6196 98.1965 42.2381 98.6283 42.8355C98.6494 42.9458 98.7415 43.0235 99.0289 43.3847C100.853 45.6769 103.712 47.7885 106.552 48.6219C107.34 48.8532 110.43 49.7221 111.068 49.1495C111.673 48.607 111.341 47.751 110.49 47.6134C108.068 47.2215 106.911 47.2024 104.421 45.7687C102.538 44.685 101.245 43.3947 99.9654 41.7415C99.4055 40.9143 98.8404 39.8444 98.282 38.4878L98.2809 38.4894C98.0142 37.7686 97.813 37.0189 97.636 36.0552C97.2218 33.8007 97.6555 32.4972 97.9296 30.335C98.2441 29.8221 98.3925 29.0862 98.6631 28.4737C98.9186 27.8952 99.2754 27.2595 99.6139 26.7552C101.73 23.602 104.955 21.3392 108.902 20.6419C112.503 20.0057 116.588 20.8674 119.467 22.9151C119.949 23.2576 120.464 23.708 121.125 23.9295C124.028 24.9018 126.553 21.186 124.171 18.8202C123.453 18.1071 121.882 17.1732 120.989 16.6945C114.387 13.1545 106.786 13.7132 100.515 17.4761C99.823 17.8911 98.054 19.1822 97.6009 19.7737H97.6011ZM120.47 44.6013C119.997 44.7423 118.598 45.9564 116.638 46.6857C116.193 46.8513 114.697 47.2581 114.479 47.4458C113.791 48.0373 114.302 49.078 115.327 48.9407C115.899 48.8641 116.975 48.4447 117.532 48.2236C118.222 47.9498 118.858 47.6062 119.498 47.2575C120.023 46.9718 120.893 46.4373 121.285 46.0747C121.982 45.4301 121.411 44.3206 120.47 44.6014L120.47 44.6013Z" fill="#02FE47"/>
<path d="M17.9053 25.7647C17.9053 25.4166 17.973 25.0879 18.1083 24.7809C18.2413 24.4739 18.425 24.2056 18.6546 23.9736C18.8818 23.7439 19.1501 23.5627 19.4595 23.4297C19.7665 23.2968 20.0953 23.2315 20.4433 23.2315C20.7575 23.2315 21.0476 23.2822 21.3159 23.3862C21.5866 23.4901 21.8332 23.6327 22.0604 23.8116C22.2876 23.6327 22.5342 23.4901 22.8025 23.3862C23.0683 23.2822 23.3584 23.2315 23.6702 23.2315C24.0207 23.2315 24.3543 23.2968 24.671 23.4297C24.9876 23.5627 25.2656 23.7439 25.5049 23.9736C25.7442 24.2056 25.9327 24.4739 26.0753 24.7809C26.218 25.0879 26.2881 25.4166 26.2881 25.7647V29.1342C26.2881 29.2672 26.2639 29.3904 26.2131 29.504C26.1648 29.6176 26.0971 29.7143 26.0125 29.7965C25.9254 29.8787 25.8288 29.944 25.7176 29.9923C25.6064 30.0382 25.488 30.0624 25.3599 30.0624C25.2269 30.0624 25.1036 30.0382 24.9925 29.9923C24.8789 29.944 24.7798 29.8787 24.6927 29.7965C24.6081 29.7143 24.5405 29.6176 24.4921 29.504C24.4413 29.3904 24.4172 29.2672 24.4172 29.1366V25.8252C24.4172 25.7357 24.3954 25.6511 24.3543 25.5713C24.3108 25.4916 24.2552 25.4215 24.1851 25.3635C24.115 25.303 24.0353 25.2571 23.9507 25.2233C23.8636 25.1918 23.7766 25.175 23.692 25.175C23.5301 25.175 23.385 25.2281 23.2618 25.3345C23.1361 25.4408 23.0635 25.5738 23.0394 25.7333C23.0394 25.7527 23.0394 25.772 23.0394 25.7913C23.0394 25.8106 23.0394 25.83 23.0394 25.8542V27.2996C23.0394 27.4326 23.0152 27.5534 22.9645 27.667C22.9161 27.7806 22.8484 27.8798 22.7662 27.9643C22.684 28.049 22.585 28.1166 22.4714 28.1674C22.3602 28.2157 22.2393 28.2423 22.1112 28.2423C21.9782 28.2423 21.855 28.2157 21.7438 28.1674C21.6302 28.1166 21.5311 28.049 21.4441 27.9643C21.3595 27.8797 21.2918 27.7806 21.2434 27.667C21.1927 27.5534 21.1685 27.4326 21.1685 27.2996V25.9194C21.1685 25.9001 21.1637 25.8711 21.154 25.8324V25.8276C21.154 25.7357 21.137 25.6511 21.1008 25.5713C21.0646 25.4916 21.0162 25.4215 20.9533 25.3587C20.8929 25.2982 20.8204 25.2499 20.7407 25.2136C20.6585 25.1774 20.5738 25.1604 20.482 25.1604C20.3177 25.1604 20.1702 25.2112 20.0397 25.3127C19.9115 25.4142 19.8294 25.5399 19.7907 25.6898C19.7955 25.714 19.8004 25.7357 19.8028 25.7575C19.8052 25.7792 19.8052 25.801 19.8052 25.8252L19.7762 29.1366C19.7714 29.2672 19.7448 29.3904 19.6964 29.504C19.6457 29.6176 19.5804 29.7143 19.4958 29.7965C19.4136 29.8787 19.3169 29.944 19.2058 29.9923C19.0946 30.0382 18.9761 30.0624 18.848 30.0624C18.7151 30.0624 18.5942 30.0382 18.4806 29.9923C18.367 29.944 18.2679 29.8787 18.1809 29.7965C18.0963 29.7143 18.0286 29.6176 17.9803 29.504C17.9295 29.3904 17.9053 29.2672 17.9053 29.1342V25.7647H17.9053ZM27.32 24.1669C27.32 24.0388 27.3442 23.918 27.395 23.8044C27.4433 23.6908 27.511 23.5917 27.5932 23.5071C27.6754 23.4224 27.7745 23.3548 27.8905 23.3064C28.0065 23.2557 28.1274 23.2315 28.2555 23.2315C28.3885 23.2315 28.5117 23.2556 28.6253 23.3064C28.7365 23.3548 28.8381 23.4224 28.9251 23.5071C29.0121 23.5917 29.0821 23.6908 29.1305 23.8044C29.1813 23.918 29.2055 24.0388 29.2055 24.1669V26.8064C29.2055 27.0143 29.2441 27.2077 29.3191 27.3842C29.394 27.5606 29.4979 27.7153 29.6309 27.8458C29.7614 27.9739 29.9185 28.0754 30.0974 28.1504C30.2762 28.2229 30.472 28.2591 30.6847 28.2591C30.8926 28.2591 31.086 28.2181 31.2672 28.1383C31.4461 28.0585 31.6008 27.9497 31.7289 27.812C31.8594 27.6766 31.9634 27.5171 32.0383 27.3358C32.1132 27.1545 32.1519 26.9587 32.1519 26.7508V24.1669C32.1519 24.0388 32.1785 23.9179 32.2317 23.8043C32.2873 23.6907 32.3574 23.5916 32.442 23.507C32.5266 23.4224 32.6281 23.3548 32.7465 23.3064C32.8649 23.2556 32.9882 23.2314 33.1139 23.2314C33.2469 23.2314 33.3677 23.2556 33.4789 23.3064C33.5901 23.3547 33.6892 23.4224 33.7738 23.507C33.8584 23.5916 33.9236 23.6907 33.9672 23.8043C34.0131 23.9179 34.0349 24.0388 34.0349 24.1669V26.7871C34.0349 27.1738 33.9744 27.5413 33.8536 27.8869C33.7351 28.2349 33.5659 28.5492 33.3484 28.8296C33.1309 29.1099 32.8747 29.3541 32.5774 29.5595C32.2801 29.765 31.9561 29.9197 31.6057 30.0212V31.5658C31.6057 31.7035 31.5815 31.8292 31.5356 31.9452C31.4872 32.0612 31.422 32.1604 31.3373 32.2449C31.2527 32.332 31.1536 32.3972 31.04 32.4432C30.9264 32.4915 30.8032 32.5157 30.6702 32.5157C30.5397 32.5157 30.414 32.4915 30.2956 32.4432C30.1771 32.3973 30.0756 32.332 29.9886 32.2449C29.9015 32.1603 29.8339 32.0612 29.7855 31.9452C29.7396 31.8292 29.7154 31.7035 29.7154 31.5658V30.0091C29.3649 29.9003 29.0459 29.7408 28.751 29.5329C28.4585 29.325 28.2071 29.0809 27.9944 28.8005C27.7817 28.5202 27.6149 28.2083 27.4965 27.8651C27.378 27.5243 27.32 27.1642 27.32 26.7871V24.1669L27.32 24.1669Z" fill="#02FE47"/>
</svg>
