<svg width="327" height="373" viewBox="0 0 327 373" fill="none" xmlns="http://www.w3.org/2000/svg">
<path fill-rule="evenodd" clip-rule="evenodd" d="M59.035 51.9488C54.7063 54.4721 41.7573 69.7025 37.5118 75.383C-16.1103 147.131 -11.1075 241.477 46.9745 308.322C111.168 382.201 227.632 394.569 306.636 333.697C324.499 319.933 333.105 293.171 320.2 269.779C310.053 251.384 283.838 237.221 258.06 248.454C240.804 255.974 234.931 270.605 194.908 273.818C168.963 275.901 142.591 264.275 126.687 249.034C109.514 232.577 99.5152 213.29 98.9268 188.63C97.6983 137.144 139.342 99.964 189.974 98.7724C209.796 98.3057 229.236 104.379 244.085 115.757C248.867 119.422 252.233 123.375 256.064 126.762C261.053 131.177 267.988 128.414 269.48 123.031C273.393 108.921 216.491 67.3401 156.313 87.5811C134.216 95.0134 117.206 106.577 103.434 124.302C89.2823 142.517 80.2857 167.158 82.6038 193.927C83.7363 207.001 88.4551 224.703 95.101 235.461C98.9763 241.734 104.769 250.33 109.548 255.457C144.454 292.906 199.116 300.866 243.467 276.976C253.017 271.831 260.735 263.328 272.114 261.633C298.386 257.722 318.564 284.381 305.784 309.216C294.651 330.852 242.521 350.536 217.238 354.055C160.896 361.897 115.543 345.778 77.7158 314.914C47.5958 290.338 19.0765 244.483 17.3249 197.764C15.4776 148.488 28.105 111.686 58.5798 75.8721C61.0912 72.9205 68.3124 66.198 69.4316 63.9972C70.6872 63.3387 70.0275 63.7627 71.2438 62.9099L81.714 54.1911C136.374 12.6596 207.45 4.56944 270.062 36.6095C278.741 41.0505 290.029 47.9536 297.754 54.4035C308.916 63.7233 296.384 81.5719 283.86 74.2588C274.089 68.5537 272.539 64.7827 256.345 56.974C176.992 18.7103 83.1113 53.8062 50.5188 135.526C36.8986 168.062 38.4894 211.202 54.0086 244.652L53.9435 244.743C54.4943 245.909 55.0602 247.067 55.6403 248.219C56.2028 249.447 56.7696 250.637 57.2215 251.384C57.3944 251.671 57.5527 251.927 57.6996 252.16C60.9731 258.211 64.6573 264.051 68.7344 269.691C68.9342 270.733 69.8041 271.466 72.5173 274.876C89.7384 296.518 116.73 316.455 143.546 324.324C150.991 326.508 180.159 334.712 186.189 329.305C191.903 324.184 188.761 316.102 180.728 314.802C157.858 311.102 146.933 310.922 123.424 297.385C105.654 287.153 93.4445 274.971 81.3594 259.362C76.0736 251.552 70.7383 241.45 65.4657 228.642L65.4552 228.657C62.9369 221.851 61.0378 214.773 59.3662 205.673C55.456 184.387 59.5505 172.079 62.1386 151.665C65.1082 146.822 66.5093 139.874 69.0637 134.091C71.4763 128.629 74.8456 122.627 78.0411 117.866C98.0213 88.0936 128.466 66.73 165.735 60.146C199.738 54.139 238.308 62.275 265.49 81.6088C270.035 84.8417 274.902 89.0948 281.146 91.1865C308.551 100.367 332.388 65.2833 309.901 42.9462C303.123 36.2132 288.286 27.3956 279.857 22.8757C217.522 -10.5482 145.762 -5.27247 86.5458 30.2556C80.0156 34.1733 63.3138 46.3643 59.0357 51.9481L59.035 51.9488ZM274.955 286.364C270.494 287.695 257.278 299.158 238.773 306.044C234.572 307.607 220.449 311.449 218.389 313.221C211.897 318.805 216.72 328.631 226.397 327.335C231.798 326.611 241.956 322.651 247.215 320.565C253.732 317.979 259.737 314.736 265.783 311.442C270.736 308.745 278.951 303.699 282.653 300.274C289.233 294.189 283.841 283.713 274.955 286.364Z" fill="#00AF54"/>
</svg>
