<svg width="22" height="22" viewBox="0 0 22 22" fill="none" xmlns="http://www.w3.org/2000/svg">
<path d="M11.9168 1.8335H8.25016C3.66683 1.8335 1.8335 3.66683 1.8335 8.25016V13.7502C1.8335 18.3335 3.66683 20.1668 8.25016 20.1668H13.7502C18.3335 20.1668 20.1668 18.3335 20.1668 13.7502V9.16683" stroke="#051070" stroke-width="1.5" stroke-linecap="round" stroke-linejoin="round"/>
<path d="M8.24984 9.16667C9.26236 9.16667 10.0832 8.34586 10.0832 7.33333C10.0832 6.32081 9.26236 5.5 8.24984 5.5C7.23732 5.5 6.4165 6.32081 6.4165 7.33333C6.4165 8.34586 7.23732 9.16667 8.24984 9.16667Z" fill="#9E9BC6" stroke="#9E9BC6" stroke-width="1.5" stroke-linecap="round" stroke-linejoin="round"/>
<path d="M16.5 7.3335V1.8335L18.3333 3.66683" stroke="#051070" stroke-width="1.5" stroke-linecap="round" stroke-linejoin="round"/>
<path d="M16.4998 1.8335L14.6665 3.66683" stroke="#051070" stroke-width="1.5" stroke-linecap="round" stroke-linejoin="round"/>
<path d="M2.44727 17.3707L6.96643 14.3365C7.6906 13.8507 8.7356 13.9057 9.38643 14.4648L9.68893 14.7307C10.4039 15.3448 11.5589 15.3448 12.2739 14.7307L16.0873 11.4582C16.8023 10.844 17.9573 10.844 18.6723 11.4582L20.1664 12.7415" stroke="#051070" stroke-width="1.5" stroke-linecap="round" stroke-linejoin="round"/>
</svg>
